<?xml version="1.0" standalone="no"?><!DOCTYPE svg PUBLIC "-//W3C//DTD SVG 1.1//EN" "http://www.w3.org/Graphics/SVG/1.1/DTD/svg11.dtd"><svg t="1582779679924" class="icon" viewBox="0 0 1024 1024" version="1.1" xmlns="http://www.w3.org/2000/svg" p-id="2868" xmlns:xlink="http://www.w3.org/1999/xlink" width="128" height="128"><defs><style type="text/css"></style></defs><path d="M47.86028 107.588411l112.261052 0 0 112.20272-112.261052 0 0-112.20272Z" p-id="2869" fill="#ffffff"></path><path d="M280.044244 107.588411l696.088312 0 0 112.20272-696.088312 0 0-112.20272Z" p-id="2870" fill="#ffffff"></path><path d="M47.86028 339.772375l112.261052 0 0 112.20272-112.261052 0 0-112.20272Z" p-id="2871" fill="#ffffff"></path><path d="M280.044244 339.772375l696.088312 0 0 112.20272-696.088312 0 0-112.20272Z" p-id="2872" fill="#ffffff"></path><path d="M47.86028 571.95634l112.261052 0 0 112.20272-112.261052 0 0-112.20272Z" p-id="2873" fill="#ffffff"></path><path d="M280.044244 571.95634l696.088312 0 0 112.20272-696.088312 0 0-112.20272Z" p-id="2874" fill="#ffffff"></path><path d="M47.86028 804.140304l112.261052 0 0 112.20272-112.261052 0 0-112.20272Z" p-id="2875" fill="#ffffff"></path><path d="M280.044244 804.140304l696.088312 0 0 112.20272-696.088312 0 0-112.20272Z" p-id="2876" fill="#ffffff"></path></svg>